<?xml version="1.0" standalone="no"?>
<!DOCTYPE svg PUBLIC "-//W3C//DTD SVG 20010904//EN"
 "http://www.w3.org/TR/2001/REC-SVG-20010904/DTD/svg10.dtd">
<svg version="1.0" xmlns="http://www.w3.org/2000/svg"
 width="700.000000pt" height="700.000000pt" viewBox="0 0 700.000000 700.000000"
 preserveAspectRatio="xMidYMid meet">
<metadata>
Created by potrace 1.11, written by Peter Selinger 2001-2013
</metadata>
<g transform="translate(0.000000,700.000000) scale(0.100000,-0.100000)"
fill="#000000" stroke="none">
<path d="M172 6879 c-11 -4 -24 -20 -28 -36 -11 -34 -11 -1668 0 -1701 8 -25
40 -42 67 -35 41 11 42 16 41 857 l0 806 802 0 c709 0 804 2 824 16 25 17 28
50 6 79 -14 18 -28 20 -234 21 -152 0 -220 -3 -220 -10 0 -8 -3 -8 -8 -1 -10
15 -464 15 -474 1 -5 -7 -8 -7 -8 -1 0 15 -470 15 -470 1 0 -8 -3 -8 -8 -1 -8
12 -260 15 -290 4z"/>
<path d="M5121 6878 c-24 -8 -41 -44 -33 -68 13 -40 5 -40 839 -40 l803 0 0
-809 c0 -794 0 -809 20 -834 11 -14 26 -24 33 -23 36 6 55 19 61 39 3 12 6
400 6 863 l0 841 -21 19 c-20 18 -50 19 -854 20 -458 0 -842 -3 -854 -8z"/>
<path d="M3355 5285 c-126 -80 -250 -157 -275 -173 -25 -16 -292 -183 -595
-372 -302 -189 -579 -362 -615 -384 -36 -23 -284 -179 -553 -347 l-487 -304 2
-449 3 -449 1317 -658 1318 -659 177 110 c98 60 669 413 1268 784 600 371
1091 673 1093 672 1 -2 -2 -25 -7 -52 -25 -129 -31 -192 -21 -194 3 -1 31 -7
62 -15 l57 -13 5 27 c3 14 8 42 12 61 3 19 20 117 38 217 l32 182 -35 6 c-20
4 -47 9 -61 11 -14 3 -32 7 -40 9 -8 3 -33 7 -55 11 -22 3 -58 9 -80 14 -22 5
-56 12 -75 15 -19 3 -51 10 -71 14 -21 5 -41 6 -47 2 -6 -3 -13 -31 -17 -61
-4 -30 -9 -58 -11 -62 -2 -3 51 -16 118 -29 97 -18 118 -25 104 -33 -10 -6
-43 -27 -74 -47 -31 -20 -183 -115 -337 -210 -154 -95 -354 -219 -445 -275
-91 -57 -208 -129 -260 -160 -52 -32 -106 -66 -120 -75 -14 -10 -151 -95 -305
-189 -154 -95 -296 -183 -315 -195 -92 -60 -392 -245 -396 -245 -3 0 -17 -8
-32 -19 -78 -54 -159 -101 -172 -100 -8 0 -573 280 -1255 622 l-1240 622 -1
368 0 368 1285 803 c708 442 1302 813 1321 825 l35 20 125 -61 c69 -33 211
-102 315 -153 193 -94 414 -202 830 -405 127 -62 289 -141 360 -175 72 -34
256 -124 410 -200 154 -75 290 -141 303 -146 19 -7 22 -16 22 -66 l0 -58 -213
-131 c-116 -72 -464 -288 -772 -479 -308 -191 -684 -424 -835 -518 -151 -94
-297 -184 -325 -202 -27 -17 -120 -75 -206 -128 l-157 -97 -633 316 c-349 174
-789 393 -979 487 -190 94 -348 172 -352 174 -5 2 -8 -31 -8 -74 l1 -78 152
-74 c152 -74 1533 -758 1723 -853 l102 -51 57 34 c31 19 68 41 81 49 13 8 538
334 1167 724 628 391 1185 736 1237 769 l95 59 -1 134 c-1 74 -3 136 -5 138
-2 2 -42 21 -89 44 -47 22 -206 100 -355 172 -148 73 -351 172 -450 220 -99
48 -274 134 -390 190 -115 56 -286 140 -380 185 -259 126 -587 286 -714 349
-63 31 -120 56 -125 55 -6 0 -114 -65 -241 -144z"/>
<path d="M6754 1873 c-18 -13 -19 -39 -22 -832 l-2 -818 -768 -1 c-422 0 -784
-1 -804 -1 -51 -1 -79 -29 -69 -68 4 -15 16 -33 27 -38 13 -7 316 -10 858 -10
l838 0 19 24 c19 23 19 48 17 878 -3 842 -3 855 -23 866 -28 16 -49 16 -71 0z"/>
<path d="M1046 1088 c-2 -7 -8 -37 -14 -66 -11 -60 -25 -51 131 -81 54 -11
100 -21 102 -23 2 -2 -228 -159 -511 -348 -284 -190 -518 -348 -520 -352 -6
-10 54 -98 66 -98 8 0 142 87 835 544 108 71 197 127 199 125 3 -2 -4 -49 -14
-104 -27 -140 -29 -130 42 -143 72 -13 73 -13 83 62 4 28 8 58 10 66 4 16 54
304 58 329 2 13 -57 30 -193 54 -26 5 -131 24 -165 31 -88 17 -105 17 -109 4z"/>
</g>
</svg>
